<svg id="introduction" xmlns="http://www.w3.org/2000/svg" width="29.471" height="29.471" viewBox="0 0 29.471 29.471">
  <path id="Path_515" data-name="Path 515" d="M277.245,0h-9.417a2.39,2.39,0,0,0-2.387,2.387V7.5a2.387,2.387,0,0,0,2.385,2.385h1.069v3.406a.867.867,0,0,0,1.476.615l4.048-4.021h2.829A2.387,2.387,0,0,0,279.632,7.5V2.387A2.39,2.39,0,0,0,277.245,0Zm.661,7.5a.659.659,0,0,1-.658.658h-3.184a.869.869,0,0,0-.61.252l-2.833,2.814v-2.2a.868.868,0,0,0-.866-.866h-1.93a.659.659,0,0,1-.658-.658V2.387a.661.661,0,0,1,.661-.661h9.417a.661.661,0,0,1,.661.661Z" transform="translate(-250.161)" fill="#1e272e"/>
  <path id="Path_516" data-name="Path 516" d="M401.5,70.87h-1.916a.863.863,0,1,0,0,1.727H401.5a.863.863,0,0,0,0-1.727Z" transform="translate(-375.77 -66.791)" fill="#1e272e"/>
  <path id="Path_517" data-name="Path 517" d="M318.219,70.87H316.3a.863.863,0,1,0,0,1.727h1.916a.863.863,0,1,0,0-1.727Z" transform="translate(-297.283 -66.791)" fill="#1e272e"/>
  <path id="Path_518" data-name="Path 518" d="M16.337,182.342a4.128,4.128,0,0,0,1-2.7v-1.1a4.146,4.146,0,0,0-4.148-4.148H13.18a4.181,4.181,0,0,0-4.137,4.2v1.049a4.137,4.137,0,0,0,1.208,2.924l-.009,0L5.18,184.381V177.2a2.589,2.589,0,0,0-2.648-2.59A2.624,2.624,0,0,0,0,177.242v9.289a3.9,3.9,0,0,0,5.195,3.685l1.209-.383-.043,3.115a.869.869,0,0,0,.866.878H20.382a.868.868,0,0,0,.866-.866V188.9A6.843,6.843,0,0,0,16.337,182.342Zm-5.568-3.748a2.451,2.451,0,0,1,2.415-2.473h.007a2.42,2.42,0,0,1,2.421,2.421v1.1a2.425,2.425,0,0,1-2.407,2.421h-.011a2.427,2.427,0,0,1-2.424-2.424Zm-9.043-1.352a.888.888,0,0,1,.844-.9.863.863,0,0,1,.883.863v1.166H1.727ZM19.521,192.1h-1.5v-3.857a.863.863,0,1,0-1.727,0V192.1H8.1l.048-3.436a.868.868,0,0,0-1.128-.838l-2.359.748-.028.009a2.178,2.178,0,0,1-2.906-2.053V180.1H3.454V185.6a.867.867,0,0,0,1.158.815l6.2-2.22,0,0,.013,0a9.4,9.4,0,0,1,3.585-.4,5.11,5.11,0,0,1,5.1,5.1v3.2Z" transform="translate(0 -164.356)" fill="#1e272e"/>
</svg>
