<svg xmlns="http://www.w3.org/2000/svg" width="26.461" height="31.282" viewBox="0 0 26.461 31.282">
  <defs>
    <style>
      .cls-1 {
        fill: #0096f5;
      }
    </style>
  </defs>
  <g id="location" transform="translate(-39.451)">
    <g id="Group_263" data-name="Group 263" transform="translate(39.451)">
      <g id="Group_262" data-name="Group 262" transform="translate(0)">
        <path id="Path_338" data-name="Path 338" class="cls-1" d="M62.037,3.875a13.231,13.231,0,0,0-22.586,9.356c0,7.149,6.76,13.1,10.391,16.29.5.444.94.827,1.288,1.152a2.28,2.28,0,0,0,3.1,0c.347-.324.783-.708,1.288-1.152,3.632-3.195,10.391-9.141,10.391-16.29A13.145,13.145,0,0,0,62.037,3.875Zm-7.727,24.27c-.516.454-.961.845-1.328,1.188a.442.442,0,0,1-.6,0c-.367-.343-.813-.735-1.328-1.188-3.414-3-9.769-8.594-9.769-14.914a11.4,11.4,0,0,1,22.8,0C64.08,19.551,57.725,25.142,54.311,28.145Z" transform="translate(-39.451)"/>
      </g>
    </g>
    <g id="Group_265" data-name="Group 265" transform="translate(46.851 6.9)">
      <g id="Group_264" data-name="Group 264">
        <path id="Path_339" data-name="Path 339" class="cls-1" d="M166.4,112.938a5.831,5.831,0,1,0,5.831,5.831A5.837,5.837,0,0,0,166.4,112.938Zm0,9.829a4,4,0,1,1,4-4A4,4,0,0,1,166.4,122.767Z" transform="translate(-160.57 -112.938)"/>
      </g>
    </g>
  </g>
</svg>
