<svg xmlns="http://www.w3.org/2000/svg" width="21.047" height="28.103" viewBox="0 0 21.047 28.103">
  <defs>
    <style>
      .cls-1 {
        fill: #fdfdfd;
      }
    </style>
  </defs>
  <g id="Group_261" data-name="Group 261" transform="translate(-297.082 -203.839)">
    <path id="Path_328" data-name="Path 328" class="cls-1" d="M146.493,178.4a3.2,3.2,0,1,0-3.2-3.2A3.2,3.2,0,0,0,146.493,178.4Zm0-5.156a1.962,1.962,0,1,1-1.962,1.962A1.962,1.962,0,0,1,146.493,173.244Zm0,0" transform="translate(161.112 40.357)"/>
    <path id="Path_329" data-name="Path 329" class="cls-1" d="M113.583,325.122a4.8,4.8,0,0,0-3.479,1.455,5.134,5.134,0,0,0-1.436,3.634.621.621,0,0,0,.619.619h8.592a.621.621,0,0,0,.619-.619,5.134,5.134,0,0,0-1.436-3.634,4.8,4.8,0,0,0-3.479-1.455Zm-3.634,4.469a3.786,3.786,0,0,1,1.04-2.148,3.646,3.646,0,0,1,5.187,0,3.806,3.806,0,0,1,1.04,2.148Zm0,0" transform="translate(194.022 -105.183)"/>
    <path id="Path_330" data-name="Path 330" class="cls-1" d="M13.369,0H-1.487a3.1,3.1,0,0,0-3.1,3.1V25.008a3.1,3.1,0,0,0,3.1,3.1H13.369a3.1,3.1,0,0,0,3.1-3.1V3.1A3.1,3.1,0,0,0,13.369,0Zm1.857,25.008a1.863,1.863,0,0,1-1.857,1.857H-1.487a1.863,1.863,0,0,1-1.857-1.857V3.1A1.863,1.863,0,0,1-1.487,1.238H13.369A1.863,1.863,0,0,1,15.226,3.1Zm0,0" transform="translate(301.664 203.839)"/>
    <path id="Path_331" data-name="Path 331" class="cls-1" d="M143.912,60.113h4.952a.619.619,0,0,0,0-1.238h-4.952a.619.619,0,1,0,0,1.238Zm0,0" transform="translate(161.112 147.879)"/>
  </g>
</svg>
