<svg xmlns="http://www.w3.org/2000/svg" width="25.303" height="27.603" viewBox="0 0 25.303 27.603">
  <defs>
    <style>
      .cls-1 {
        fill: #0096f5;
      }
    </style>
  </defs>
  <g id="copy" transform="translate(-1)">
    <path id="Path_332" data-name="Path 332" class="cls-1 cls-11" d="M22.677,27H8.875A2.879,2.879,0,0,1,6,24.127V6.875A2.879,2.879,0,0,1,8.875,4h13.8a2.879,2.879,0,0,1,2.875,2.875V24.127A2.879,2.879,0,0,1,22.677,27ZM8.875,5.15A1.727,1.727,0,0,0,7.15,6.875V24.127a1.727,1.727,0,0,0,1.725,1.725h13.8A1.727,1.727,0,0,0,24.4,24.127V6.875A1.727,1.727,0,0,0,22.677,5.15Z" transform="translate(0.751 0.601)"/>
    <path id="Path_333" data-name="Path 333" class="cls-1 cls-11" d="M5.025,24.153H3.875A2.879,2.879,0,0,1,1,21.278V2.875A2.879,2.879,0,0,1,3.875,0h13.8a2.879,2.879,0,0,1,2.875,2.875.575.575,0,1,1-1.15,0A1.727,1.727,0,0,0,17.677,1.15H3.875A1.727,1.727,0,0,0,2.15,2.875v18.4A1.727,1.727,0,0,0,3.875,23h1.15a.575.575,0,1,1,0,1.15Z" transform="translate(0 0)"/>
    <path id="Path_334" data-name="Path 334" class="cls-1 cls-11" d="M19.776,17.15h-9.2a.575.575,0,1,1,0-1.15h9.2a.575.575,0,0,1,0,1.15Z" transform="translate(1.351 2.402)"/>
    <path id="Path_335" data-name="Path 335" class="cls-1 cls-11" d="M19.776,21.15h-9.2a.575.575,0,1,1,0-1.15h9.2a.575.575,0,1,1,0,1.15Z" transform="translate(1.351 3.003)"/>
    <path id="Path_336" data-name="Path 336" class="cls-1 cls-11" d="M19.776,13.15h-9.2a.575.575,0,1,1,0-1.15h9.2a.575.575,0,0,1,0,1.15Z" transform="translate(1.351 1.802)"/>
    <path id="Path_337" data-name="Path 337" class="cls-1 cls-11" d="M19.776,9.15h-9.2a.575.575,0,0,1,0-1.15h9.2a.575.575,0,1,1,0,1.15Z" transform="translate(1.351 1.201)"/>
  </g>
</svg>
