<svg xmlns="http://www.w3.org/2000/svg" width="20.084" height="22.934" viewBox="0 0 20.084 22.934">
  <g id="Group_350" data-name="Group 350" transform="translate(-211 -329)">
    <g id="tel" transform="translate(171.5 329)">
      <g id="Group_336" data-name="Group 336" transform="translate(39.5)">
        <g id="Group_335" data-name="Group 335">
          <path id="Path_500" data-name="Path 500" d="M179.188,402.914a.9.9,0,1,0,0-1.792H177.4a.9.9,0,1,0,0,1.792Z" transform="translate(-170.363 -383.155)" fill="#1e272e"/>
          <path id="Path_501" data-name="Path 501" d="M54.461,18.2a.9.9,0,0,0-.9.9v.25a1.794,1.794,0,0,1-1.792,1.792h-8.69a1.794,1.794,0,0,1-1.792-1.792V3.583a1.794,1.794,0,0,1,1.792-1.792h7.582a.9.9,0,0,0,0-1.792H43.083A3.587,3.587,0,0,0,39.5,3.583V19.35a3.587,3.587,0,0,0,3.583,3.583h8.69a3.587,3.587,0,0,0,3.583-3.583V19.1A.9.9,0,0,0,54.461,18.2Z" transform="translate(-39.5)" fill="#1e272e"/>
        </g>
      </g>
    </g>
    <path id="Path_512" data-name="Path 512" d="M112.1,186.027l-2.986-3.282a1.52,1.52,0,0,0-2.15,0,1.486,1.486,0,0,0-.384.657,1.521,1.521,0,0,0-2.384.793,1.522,1.522,0,0,0-2.379.779l-1.407-1.407a1.52,1.52,0,0,0-2.15,2.15l5.407,5.407-3.207.5a1.779,1.779,0,0,0-1.52,1.753,1.193,1.193,0,0,0,1.191,1.191h7.489a4.339,4.339,0,0,0,3.089-1.279l1.249-1.249a4.363,4.363,0,0,0,.142-6.021Zm-.7,5.46-1.249,1.249a3.551,3.551,0,0,1-2.527,1.047h-7.489a.4.4,0,0,1-.4-.4.984.984,0,0,1,.843-.968l3.983-.626a.4.4,0,0,0,.219-.673l-5.959-5.959a.726.726,0,0,1,1.028-1.026l3.974,3.974a.4.4,0,0,0,.562-.562l-1.623-1.623a.726.726,0,0,1,1.027-1.027l1.623,1.623a.4.4,0,0,0,.678-.281.393.393,0,0,0-.113-.277l-.828-.828a.726.726,0,0,1,1.027-1.027l.828.828h0a.4.4,0,0,0,.554-.569l-.034-.034a.726.726,0,0,1,1.013-1.04l2.974,3.268a3.569,3.569,0,0,1-.117,4.925Z" transform="translate(117.595 150.433)" fill="#1e272e" stroke="#1e272e" stroke-width="0.5"/>
  </g>
</svg>
