<svg xmlns="http://www.w3.org/2000/svg" width="17.522" height="22.103" viewBox="0 0 17.522 22.103">
  <defs>
    <style>
      .cls-1 {
        fill: #1e272e;
      }
    </style>
  </defs>
  <path id="id-card" class="cls-1" d="M16.659,15.239a.863.863,0,0,0,.863-.863V5.612a3.457,3.457,0,0,0-3.454-3.454h-2.72V.863A.863.863,0,0,0,10.486,0H7.032a.863.863,0,0,0-.863.863v1.3H3.454A3.457,3.457,0,0,0,0,5.612V18.649A3.457,3.457,0,0,0,3.454,22.1H14.069a3.457,3.457,0,0,0,3.454-3.454.863.863,0,0,0-1.727,0,1.729,1.729,0,0,1-1.727,1.727H3.454a1.729,1.729,0,0,1-1.727-1.727V5.612A1.729,1.729,0,0,1,3.454,3.885H6.169v.432a2.59,2.59,0,0,0,5.18,0V3.885h2.72A1.729,1.729,0,0,1,15.8,5.612v8.763A.863.863,0,0,0,16.659,15.239ZM9.622,4.317a.863.863,0,1,1-1.727,0V1.727H9.622ZM4.7,16.879a.863.863,0,0,0,.863.863h6.389a.863.863,0,0,0,.863-.863,4.058,4.058,0,0,0-1.881-3.423,2.72,2.72,0,1,0-4.355,0A4.058,4.058,0,0,0,4.7,16.879Zm1.892-.863a2.331,2.331,0,0,1,4.331,0Zm1.173-4.187a.993.993,0,1,1,.993.993A.994.994,0,0,1,7.766,11.828Zm0,0" transform="translate(0)"/>
</svg>
