<svg xmlns="http://www.w3.org/2000/svg" width="23.062" height="23.063" viewBox="0 0 23.062 23.063">
  <g id="writing_2_" data-name="writing (2)" transform="translate(-0.007)">
    <path id="Path_519" data-name="Path 519" d="M22.674,8.415,21.546,7.288a1.353,1.353,0,0,0-1.911,0L17.259,9.663V2.027A2.029,2.029,0,0,0,15.232,0H2.034A2.029,2.029,0,0,0,.007,2.027V21.036a2.029,2.029,0,0,0,2.027,2.027h13.2a2.029,2.029,0,0,0,2.027-2.027V15.674l5.415-5.347a1.353,1.353,0,0,0,0-1.911Zm-8.081,7.992-2.032.949.948-2.03,5.044-5.044L19.667,11.4Zm1.315,4.628a.676.676,0,0,1-.676.676H2.034a.676.676,0,0,1-.676-.676V2.027a.676.676,0,0,1,.676-.676h13.2a.676.676,0,0,1,.676.676v8.988c-3.747,3.747-3.5,3.478-3.574,3.631L10.55,18.468a.676.676,0,0,0,.9.9l3.822-1.784c.14-.065.163-.106.637-.574Zm4.721-10.588L19.507,9.326,20.59,8.243l1.128,1.128Z" fill="#1e272e"/>
    <path id="Path_520" data-name="Path 520" d="M65.683,98.351h10.09a.676.676,0,0,0,0-1.351H65.683a.676.676,0,0,0,0,1.351Z" transform="translate(-62.072 -92.631)" fill="#1e272e"/>
    <path id="Path_521" data-name="Path 521" d="M65.683,178.351H73.61a.676.676,0,0,0,0-1.351H65.683a.676.676,0,0,0,0,1.351Z" transform="translate(-62.072 -169.027)" fill="#1e272e"/>
    <path id="Path_522" data-name="Path 522" d="M71.448,257H65.683a.676.676,0,0,0,0,1.351h5.766a.676.676,0,0,0,0-1.351Z" transform="translate(-62.072 -245.424)" fill="#1e272e"/>
  </g>
</svg>
