<?xml version="1.0" encoding="UTF-8"?>
<!DOCTYPE svg PUBLIC "-//W3C//DTD SVG 1.1//EN" "http://www.w3.org/Graphics/SVG/1.1/DTD/svg11.dtd">
<!-- Creator: CorelDRAW 2020 (64-Bit) -->
<svg xmlns="http://www.w3.org/2000/svg" xml:space="preserve" width="54.1873mm" height="30.7966mm" version="1.1" style="shape-rendering:geometricPrecision; text-rendering:geometricPrecision; image-rendering:optimizeQuality; fill-rule:evenodd; clip-rule:evenodd"
viewBox="0 0 1301.86 739.89"
 xmlns:xlink="http://www.w3.org/1999/xlink"
 xmlns:xodm="http://www.corel.com/coreldraw/odm/2003">
 <defs>
  <style type="text/css">
   <![CDATA[
    .fil0 {fill:#FF002C}
   ]]>
  </style>
 </defs>
 <g id="Layer_x0020_1">
  <metadata id="CorelCorpID_0Corel-Layer"/>
  <path class="fil0" d="M449.39 206.54l35.81 -98.37 35.8 98.37 -71.61 0zm726.54 438.11c2.2,2.92 4.46,5.89 6.74,8.89 0.96,1.29 1.97,2.63 3.04,4.04 1.08,1.41 2.15,2.81 3.28,4.27 1.1,1.45 2.18,2.9 3.24,4.32 1.05,1.44 2.08,2.78 3.05,4.09 2.13,2.82 3.49,5.91 4.13,9.26 0.64,3.36 0.37,6.69 -0.74,10.01 -0.68,2.04 -1.68,3.92 -2.98,5.62 -1.31,1.69 -2.91,3.17 -4.78,4.38 -1.87,1.24 -4.02,2.18 -6.44,2.87 -2.42,0.67 -5.07,1.01 -7.96,1.01 -2.46,0 -5.01,-0.24 -7.64,-0.73 -2.61,-0.51 -5.28,-1.42 -8.01,-2.79 -0.63,-0.27 -1.2,-0.55 -1.78,-0.81 -0.53,-0.25 -1.05,-0.49 -1.6,-0.76 -0.54,-0.26 -0.99,-0.49 -1.37,-0.69 -3.27,1 -6.9,1.73 -10.85,2.18 -3.98,0.47 -8.37,0.69 -13.16,0.69l-2.76 0 -3.02 0 -5.73 0c-0.13,4.66 -0.96,8.6 -2.47,11.8 -1.52,3.22 -3.77,6 -6.77,8.38 -1.58,1.24 -3.28,2.28 -5.11,3.2 -1.85,0.9 -3.91,1.65 -6.19,2.27 -2.28,0.62 -4.83,1.06 -7.64,1.35 -2.82,0.31 -5.98,0.44 -9.55,0.44l0 -12.72c2.74,0 5.15,-0.09 7.29,-0.28 2.14,-0.19 4.04,-0.45 5.67,-0.81 1.65,-0.36 3.09,-0.82 4.34,-1.38 1.24,-0.56 2.33,-1.23 3.26,-2.02 1.42,-1.14 2.5,-2.49 3.24,-4.02 0.72,-1.54 1.15,-3.6 1.31,-6.19l-7.87 0c-1.71,0 -3.45,-0.13 -5.23,-0.41 -1.77,-0.27 -3.47,-0.73 -5.1,-1.41 -1.65,-0.65 -3.19,-1.51 -4.62,-2.59 -1.45,-1.04 -2.73,-2.36 -3.79,-3.89 -1.06,-1.55 -1.92,-3.4 -2.55,-5.48 -0.63,-2.11 -0.95,-4.54 -0.95,-7.27 0,-2.34 0.2,-4.45 0.62,-6.27 0.41,-1.82 0.92,-3.43 1.55,-4.83 0.64,-1.4 1.33,-2.61 2.13,-3.66 0.78,-1.03 1.52,-1.95 2.24,-2.7 2.04,-2.06 4.37,-3.64 6.96,-4.74 2.59,-1.11 5.37,-1.65 8.37,-1.65 3.73,0 6.89,0.64 9.55,1.91 2.64,1.27 4.79,3.04 6.48,5.28 1.68,2.26 2.92,4.91 3.7,8.01 0.8,3.09 1.18,6.42 1.18,10.04l0 6.95 5.68 0 3.02 0 2.76 0c0.95,0 1.79,0 2.53,0.02 0.73,0.01 1.43,0.03 2.1,0.03 0.65,0 1.31,-0.01 1.99,-0.05 0.65,-0.04 1.41,-0.1 2.23,-0.21 -0.9,-1.02 -1.69,-2.02 -2.38,-3 -0.7,-0.96 -1.28,-1.98 -1.79,-3.05 -0.49,-1.09 -0.86,-2.22 -1.13,-3.43 -0.24,-1.22 -0.37,-2.55 -0.37,-4.01 0,-2.79 0.53,-5.36 1.61,-7.71 1.06,-2.34 2.55,-4.37 4.44,-6.04 1.9,-1.67 4.1,-2.96 6.66,-3.91 2.53,-0.93 5.25,-1.4 8.18,-1.4 3.32,0 6.25,0.65 8.83,1.96 2.58,1.32 4.73,2.97 6.48,4.94 1.77,2.01 3.1,4.17 4,6.47 0.9,2.32 1.35,4.47 1.35,6.5 0,1.64 -0.17,3.14 -0.49,4.51 -0.32,1.35 -0.77,2.64 -1.35,3.83 -0.59,1.22 -1.29,2.37 -2.16,3.47 -0.85,1.09 -1.81,2.15 -2.86,3.2 1.05,0.36 2.14,0.65 3.27,0.95 1.11,0.28 2.21,0.43 3.28,0.43 1.05,0 2.15,-0.08 3.32,-0.22 1.15,-0.15 2.24,-0.48 3.29,-0.92 1.02,-0.48 1.95,-1.1 2.75,-1.94 0.81,-0.81 1.4,-1.9 1.82,-3.2 0.37,-1.27 0.22,-2.77 -0.44,-4.54 -0.68,-1.74 -1.72,-3.73 -3.16,-5.96 -1.46,-2.2 -3.24,-4.65 -5.39,-7.32 -2.17,-2.69 -4.5,-5.61 -7.05,-8.78l-5.32 -6.57 9.61 -7.21zm-28.64 29.43c0,1.26 0.2,2.38 0.6,3.36 0.4,0.95 1,1.86 1.78,2.68 0.81,0.81 1.79,1.61 2.96,2.38 1.18,0.74 2.55,1.58 4.13,2.42 1.05,-0.51 2.08,-1.09 3.08,-1.75 0.97,-0.63 1.83,-1.36 2.56,-2.17 0.73,-0.79 1.33,-1.69 1.75,-2.68 0.45,-0.98 0.68,-2.09 0.68,-3.27 0,-1.44 -0.3,-2.69 -0.92,-3.78 -0.62,-1.09 -1.36,-1.98 -2.24,-2.71 -0.88,-0.72 -1.83,-1.24 -2.84,-1.58 -1,-0.33 -1.9,-0.51 -2.69,-0.51 -1.15,0 -2.26,0.19 -3.33,0.6 -1.09,0.42 -2.03,0.97 -2.84,1.66 -0.81,0.69 -1.46,1.51 -1.93,2.42 -0.49,0.94 -0.73,1.9 -0.73,2.92zm-47.58 -5.77c-2.88,0 -5.19,0.9 -6.9,2.69 -1.7,1.82 -2.55,4.63 -2.55,8.44 0,1.49 0.31,2.77 0.91,3.83 0.58,1.05 1.35,1.91 2.28,2.59 0.93,0.65 1.99,1.14 3.15,1.45 1.15,0.31 2.32,0.46 3.49,0.46l7.87 0 0 -6.95c0,-1.95 -0.17,-3.6 -0.47,-4.99 -0.3,-1.4 -0.7,-2.54 -1.19,-3.45 -0.49,-0.92 -1.05,-1.65 -1.69,-2.21 -0.64,-0.54 -1.23,-0.95 -1.83,-1.23 -0.6,-0.25 -1.18,-0.45 -1.73,-0.52 -0.54,-0.09 -0.97,-0.13 -1.33,-0.13zm-50.68 32.19c-3.2,0 -6.07,-0.45 -8.64,-1.33 -2.55,-0.88 -4.75,-2.15 -6.6,-3.78 -1.01,0.99 -2.1,1.82 -3.24,2.45 -1.14,0.67 -2.31,1.17 -3.52,1.56 -1.21,0.38 -2.42,0.67 -3.64,0.85 -1.2,0.17 -2.36,0.26 -3.49,0.26 -1.78,0 -3.45,-0.13 -5.02,-0.41 -1.55,-0.27 -3.05,-0.88 -4.5,-1.85l0 2.14c0,9.37 -2.53,16.31 -7.59,20.8 -5.06,4.51 -12.56,6.75 -22.5,6.75l-9.97 0c-4.55,0 -8.75,-0.76 -12.58,-2.24 -3.79,-1.51 -7.1,-3.64 -9.85,-6.42 -2.76,-2.77 -4.91,-6.12 -6.46,-10.06 -1.55,-3.94 -2.33,-8.36 -2.33,-13.26 0,-2.25 0.15,-4.5 0.43,-6.75 0.28,-2.24 0.76,-4.55 1.35,-6.9 0.63,-2.34 1.41,-4.82 2.38,-7.38 0.98,-2.56 2.15,-5.32 3.56,-8.26l11.44 5.59c-1.19,2.45 -2.24,4.71 -3.14,6.82 -0.9,2.1 -1.65,4.09 -2.26,5.98 -0.6,1.88 -1.05,3.7 -1.33,5.47 -0.3,1.74 -0.42,3.5 -0.42,5.28 0,2.72 0.46,5.27 1.41,7.65 0.94,2.36 2.24,4.42 3.94,6.18 1.68,1.74 3.7,3.14 6.06,4.14 2.38,1 4.97,1.49 7.8,1.45l9.97 0c3.61,0 6.56,-0.32 8.8,-0.99 2.27,-0.67 4.02,-1.64 5.3,-2.9 1.26,-1.26 2.11,-2.81 2.56,-4.64 0.47,-1.85 0.69,-3.94 0.69,-6.3l0 -35.2 12.72 0 0 9.2c0,2.94 0.28,5.28 0.83,7.06 0.54,1.76 1.26,3.11 2.15,4.05 0.87,0.94 1.9,1.58 3.04,1.87 1.14,0.31 2.31,0.46 3.5,0.46 0.72,0 1.53,-0.13 2.42,-0.38 0.9,-0.27 1.76,-0.69 2.59,-1.29 0.82,-0.62 1.5,-1.45 2.04,-2.5 0.55,-1.02 0.82,-2.32 0.82,-3.86l0 -14.61 12.67 0 0 15.13c0.08,2.59 0.77,4.48 2.11,5.7 1.35,1.19 3.47,1.81 6.37,1.81l-0.05 0c0.48,-0.03 1.13,-0.14 1.91,-0.33 0.81,-0.18 1.58,-0.56 2.32,-1.13 0.76,-0.55 1.41,-1.36 1.96,-2.4 0.54,-1.05 0.82,-2.44 0.82,-4.18 0,-1.13 -0.15,-2.55 -0.41,-4.29 -0.28,-1.72 -0.6,-3.5 -0.97,-5.34 -0.37,-1.81 -0.76,-3.51 -1.13,-5.09 -0.37,-1.6 -0.68,-2.78 -0.92,-3.56l12.02 -3.64c0.05,0.2 0.2,0.73 0.42,1.59 0.23,0.85 0.47,1.9 0.77,3.15 0.28,1.24 0.6,2.63 0.92,4.14 0.32,1.5 0.62,3.04 0.86,4.6 0.27,1.55 0.48,3.06 0.64,4.55 0.19,1.48 0.26,2.77 0.26,3.89 0,3.49 -0.56,6.51 -1.71,9.07 -1.14,2.59 -2.61,4.72 -4.46,6.45 -1.82,1.72 -3.88,3.01 -6.17,3.86 -2.29,0.85 -4.61,1.29 -6.97,1.33zm-17.82 -57.44l-8.7 8.8 -8.68 -8.7 8.68 -8.79 8.7 8.69zm21.93 -0.19l-8.59 8.68 -8.96 -8.58 8.8 -8.79 8.74 8.7zm-11.3 -14.43l-8.16 8.19 -8.08 -8.07 8.18 -8.18 8.07 8.06zm-195.37 59.34l18.8 0c2.86,0 5.25,-0.17 7.2,-0.49 1.95,-0.32 3.52,-0.74 4.72,-1.26 1.23,-0.5 2.14,-1.09 2.74,-1.7 0.62,-0.64 1.06,-1.27 1.33,-1.93 -4.54,0.63 -8.6,0.68 -12.22,0.19 -3.6,-0.49 -6.66,-1.51 -9.2,-3.08 -2.51,-1.54 -4.43,-3.61 -5.79,-6.2 -1.35,-2.59 -2.02,-5.69 -2.02,-9.29 0,-2.87 0.52,-5.56 1.6,-8.11 1.05,-2.54 2.53,-4.74 4.42,-6.64 1.88,-1.9 4.13,-3.37 6.69,-4.45 2.56,-1.08 5.39,-1.55 8.44,-1.4 2.74,0.09 5.14,0.56 7.24,1.42 2.1,0.85 3.91,1.96 5.47,3.37 1.55,1.38 2.84,3.01 3.88,4.87 1.04,1.86 1.87,3.87 2.51,6.02 0.63,2.13 1.08,4.38 1.38,6.7 0.28,2.34 0.45,4.69 0.46,7.03l-0.18 3.78c-0.28,4.78 -1.24,8.7 -2.87,11.79 -1.63,3.08 -3.77,5.51 -6.37,7.3 -2.61,1.78 -5.57,3.04 -8.92,3.73 -3.34,0.69 -6.84,1.05 -10.52,1.05l-18.8 0 -2.05 0 -1.17 0c-2.91,0 -5.55,-0.4 -7.92,-1.18 -2.38,-0.8 -4.41,-1.93 -6.04,-3.47 -1.91,1.6 -4.17,2.78 -6.77,3.52 -2.61,0.76 -5.59,1.13 -8.92,1.13l-6.69 0 -0.18 0 -2.19 0 0 -0.03c-2.76,-0.08 -5.19,-0.3 -7.29,-0.67 -2.69,-0.45 -4.96,-1.14 -6.79,-2.04 -1.85,-0.9 -3.32,-2.06 -4.43,-3.46 -1.1,-1.4 -1.95,-3.02 -2.53,-4.91 -0.58,-1.87 -0.96,-3.99 -1.14,-6.34 -0.19,-2.38 -0.28,-4.99 -0.28,-7.85l0 -48.4 12.73 0 0 48.4c0,2.71 0.09,4.91 0.28,6.53 0.18,1.64 0.67,2.91 1.47,3.81 0.8,0.9 2.01,1.5 3.63,1.81 1.58,0.27 3.71,0.41 6.46,0.42l0.13 0 0.14 0 6.69 0c2.08,0 3.73,-0.21 4.98,-0.6 1.23,-0.37 2.17,-0.86 2.81,-1.43 0.62,-0.59 1.03,-1.24 1.22,-1.95 0.19,-0.72 0.28,-1.41 0.28,-2.1l0 -16.54 12.69 0 0 16.18c0,1.54 0.33,2.74 1.01,3.6 0.69,0.88 1.46,1.51 2.32,1.95 0.88,0.44 1.74,0.67 2.59,0.77 0.85,0.09 1.42,0.13 1.74,0.13l1.17 0 2.05 0zm26.62 -31.62c-1.24,-0.12 -2.42,-0.03 -3.57,0.27 -1.17,0.28 -2.18,0.78 -3.04,1.45 -0.88,0.69 -1.58,1.54 -2.1,2.54 -0.52,1.01 -0.78,2.16 -0.78,3.5 0,2.96 1.55,5.1 4.66,6.41 3.11,1.32 7.6,1.5 13.47,0.55 -0.08,-1.46 -0.18,-3.02 -0.36,-4.65 -0.17,-1.63 -0.54,-3.17 -1.11,-4.61 -0.59,-1.42 -1.45,-2.64 -2.58,-3.65 -1.11,-0.99 -2.65,-1.59 -4.59,-1.79zm-10.79 -32.46l9.2 -9.29 9.4 9.4 -9.31 9.29 -9.29 -9.41zm-45.22 17.88l9.2 -9.29 9.41 9.41 -9.32 9.29 -9.29 -9.4zm-90.25 73.64c2.74,0 5.17,-0.09 7.29,-0.28 2.14,-0.19 4.04,-0.45 5.68,-0.81 1.65,-0.36 3.1,-0.82 4.36,-1.38 1.23,-0.56 2.32,-1.23 3.24,-2.02 1.42,-1.14 2.51,-2.49 3.24,-4.02 0.73,-1.54 1.15,-3.6 1.31,-6.19l-7.87 0c-1.7,0 -3.45,-0.13 -5.23,-0.41 -1.77,-0.27 -3.47,-0.73 -5.1,-1.41 -1.65,-0.65 -3.19,-1.51 -4.63,-2.59 -1.45,-1.04 -2.72,-2.36 -3.78,-3.89 -1.08,-1.55 -1.94,-3.4 -2.55,-5.48 -0.64,-2.11 -0.96,-4.54 -0.96,-7.27 0,-2.34 0.21,-4.45 0.62,-6.27 0.42,-1.82 0.92,-3.43 1.56,-4.83 0.63,-1.4 1.33,-2.61 2.11,-3.66 0.78,-1.03 1.54,-1.95 2.24,-2.7 2.05,-2.06 4.37,-3.64 6.96,-4.74 2.59,-1.11 5.38,-1.65 8.38,-1.65 3.71,0 6.89,0.64 9.53,1.91 2.64,1.27 4.79,3.04 6.48,5.28 1.69,2.26 2.92,4.91 3.7,8.01 0.79,3.09 1.18,6.42 1.18,10.04l0 18.13c0,5.07 -0.75,9.35 -2.29,12.8 -1.54,3.47 -3.87,6.43 -7,8.92 -1.58,1.24 -3.28,2.28 -5.11,3.2 -1.83,0.9 -3.9,1.65 -6.19,2.27 -2.28,0.62 -4.83,1.06 -7.64,1.35 -2.81,0.31 -5.98,0.44 -9.55,0.44l0 -12.72zm16.88 -46.9c-2.9,0 -5.2,0.9 -6.91,2.69 -1.7,1.82 -2.54,4.63 -2.54,8.44 0,1.49 0.3,2.77 0.9,3.83 0.58,1.05 1.35,1.91 2.28,2.59 0.93,0.65 1.98,1.14 3.15,1.45 1.17,0.31 2.32,0.46 3.48,0.46l7.87 0 0 -6.95c0,-1.95 -0.17,-3.6 -0.47,-4.99 -0.3,-1.4 -0.71,-2.54 -1.19,-3.45 -0.49,-0.92 -1.05,-1.65 -1.69,-2.21 -0.63,-0.54 -1.23,-0.95 -1.83,-1.23 -0.6,-0.25 -1.18,-0.45 -1.73,-0.52 -0.54,-0.09 -0.97,-0.13 -1.32,-0.13zm-29.45 29.08c-0.2,4.69 -1.06,8.93 -2.6,12.69 -1.54,3.77 -3.65,6.97 -6.33,9.61 -2.7,2.65 -5.95,4.69 -9.76,6.11 -3.82,1.42 -8.14,2.14 -12.93,2.14l-6.34 0 0 -12.72 6.34 0c3.25,0 6.09,-0.33 8.48,-1.01 2.38,-0.69 4.33,-1.78 5.87,-3.28 1.54,-1.5 2.68,-3.45 3.42,-5.84 0.76,-2.4 1.13,-5.32 1.13,-8.76l0 -31.12 12.72 0 0 32.2zm-77.21 -39.81c0.08,0.24 0.23,0.81 0.45,1.69 0.2,0.87 0.47,1.96 0.73,3.23 0.28,1.28 0.56,2.7 0.85,4.28 0.3,1.58 0.55,3.15 0.82,4.72 0.25,1.6 0.45,3.14 0.62,4.64 0.15,1.5 0.23,2.81 0.23,3.93 0,3.5 -0.58,6.55 -1.74,9.12 -1.17,2.56 -2.68,4.68 -4.56,6.34 -1.87,1.68 -3.97,2.94 -6.29,3.74 -2.34,0.82 -4.68,1.23 -7.02,1.23l-19.78 0 -2.26 0 -1.9 0c-4.52,0 -8.85,-1.99 -12.98,-5.97 -1.13,1.32 -2.46,2.41 -4.01,3.29 -1.55,0.86 -3.2,1.55 -4.99,2.06 -1.75,0.5 -3.56,0.88 -5.39,1.06 -1.82,0.21 -3.56,0.32 -5.23,0.32 -1.29,0 -2.61,-0.08 -3.93,-0.23 -1.33,-0.17 -2.83,-0.41 -4.52,-0.76 -1.68,-0.36 -3.63,-0.85 -5.8,-1.45 -2.18,-0.6 -4.78,-1.35 -7.82,-2.27l3.68 -12.21c2.08,0.82 4.23,1.52 6.45,2.16 2.22,0.64 4.37,1.15 6.48,1.54 2.11,0.4 4.14,0.64 6.09,0.77 1.93,0.12 3.68,0.08 5.22,-0.13 1.54,-0.21 2.82,-0.59 3.89,-1.15 1.09,-0.55 1.79,-1.32 2.18,-2.28 0.17,-0.41 0.25,-0.77 0.25,-1.09 0,-0.33 -0.09,-0.7 -0.28,-1.15 -0.19,-0.43 -0.49,-0.97 -0.9,-1.61 -0.41,-0.62 -0.94,-1.45 -1.58,-2.47l-18.14 -25.5 10.72 -6.9 18.24 27.64c1,1.5 2.03,3.06 3.11,4.68 1.09,1.59 2.19,3.05 3.28,4.36 1.09,1.32 2.14,2.38 3.16,3.24 1.01,0.85 1.95,1.28 2.81,1.28l4.15 0 0 0.05 20.14 0c0.38,0 0.99,-0.05 1.76,-0.19 0.77,-0.1 1.54,-0.42 2.28,-0.94 0.78,-0.5 1.45,-1.29 2.03,-2.32 0.59,-1.05 0.88,-2.47 0.88,-4.27 0,-0.76 -0.08,-1.68 -0.19,-2.74 -0.1,-1.06 -0.28,-2.23 -0.47,-3.45 -0.22,-1.22 -0.44,-2.47 -0.71,-3.76 -0.24,-1.28 -0.5,-2.48 -0.73,-3.63 -0.24,-1.14 -0.49,-2.18 -0.7,-3.11 -0.24,-0.93 -0.43,-1.66 -0.56,-2.18l11.99 -3.63zm-35.57 59.74l8.7 -8.7 8.69 8.79 -8.69 8.7 -8.7 -8.79zm21.32 0.09l8.79 -8.69 8.68 8.8 -8.68 8.67 -8.79 -8.79zm-10.17 14.31l8.08 -8.07 8.16 8.18 -8.07 8.07 -8.18 -8.18zm-80.4 -74.14c0.08,0.24 0.23,0.81 0.45,1.69 0.22,0.87 0.48,1.96 0.74,3.23 0.28,1.28 0.56,2.7 0.83,4.28 0.31,1.58 0.56,3.15 0.83,4.72 0.24,1.6 0.45,3.14 0.62,4.64 0.15,1.5 0.22,2.81 0.22,3.93 0,3.5 -0.58,6.55 -1.74,9.12 -1.15,2.56 -2.68,4.68 -4.55,6.34 -1.87,1.68 -3.97,2.94 -6.29,3.74 -2.34,0.82 -4.69,1.23 -7.03,1.23l-19.78 0 -2.24 0 -1.9 0c-4.54,0 -8.87,-1.99 -12.98,-5.97 -1.13,1.32 -2.46,2.41 -4.01,3.29 -1.56,0.86 -3.22,1.55 -4.99,2.06 -1.77,0.5 -3.56,0.88 -5.41,1.06 -1.81,0.21 -3.55,0.32 -5.21,0.32 -1.29,0 -2.61,-0.08 -3.95,-0.23 -1.32,-0.17 -2.82,-0.41 -4.51,-0.76 -1.69,-0.36 -3.64,-0.85 -5.8,-1.45 -2.18,-0.6 -4.78,-1.35 -7.82,-2.27l3.68 -12.21c2.08,0.82 4.23,1.52 6.45,2.16 2.2,0.64 4.36,1.15 6.47,1.54 2.13,0.4 4.15,0.64 6.1,0.77 1.92,0.12 3.66,0.08 5.2,-0.13 1.54,-0.21 2.83,-0.59 3.91,-1.15 1.08,-0.55 1.79,-1.32 2.16,-2.28 0.17,-0.41 0.27,-0.77 0.27,-1.09 0,-0.33 -0.1,-0.7 -0.28,-1.15 -0.19,-0.43 -0.49,-0.97 -0.91,-1.61 -0.41,-0.62 -0.93,-1.45 -1.56,-2.47l-18.14 -25.5 10.71 -6.9 18.26 27.64c0.99,1.5 2.03,3.06 3.1,4.68 1.09,1.59 2.2,3.05 3.29,4.36 1.08,1.32 2.13,2.38 3.16,3.24 1.01,0.85 1.95,1.28 2.81,1.28l4.14 0 0 0.05 20.14 0c0.4,0 1,-0.05 1.77,-0.19 0.77,-0.1 1.54,-0.42 2.28,-0.94 0.77,-0.5 1.45,-1.29 2.03,-2.32 0.58,-1.05 0.88,-2.47 0.88,-4.27 0,-0.76 -0.08,-1.68 -0.19,-2.74 -0.12,-1.06 -0.28,-2.23 -0.49,-3.45 -0.2,-1.22 -0.43,-2.47 -0.69,-3.76 -0.24,-1.28 -0.5,-2.48 -0.73,-3.63 -0.24,-1.14 -0.49,-2.18 -0.72,-3.11 -0.24,-0.93 -0.42,-1.66 -0.55,-2.18l11.98 -3.63zm-6.19 70.77l-8.59 -8.67 8.46 -8.79 8.79 8.79 -8.66 8.67zm-21.43 0.06l-8.58 -8.7 8.43 -8.79 8.79 8.79 -8.64 8.7zm-96.52 -27.91c-3.26,0 -6.28,-0.46 -9.01,-1.41 -2.74,-0.93 -5.1,-2.26 -7.09,-3.99 -1.96,-1.73 -3.5,-3.77 -4.61,-6.15 -1.11,-2.4 -1.66,-5.04 -1.66,-7.92 0,-2.87 0.36,-5.43 1.08,-7.7 0.7,-2.27 1.68,-4.37 2.88,-6.34 1.22,-1.95 2.63,-3.82 4.25,-5.61 1.61,-1.78 3.32,-3.64 5.13,-5.55l-3.22 -3.61 9.41 -8.55c0.37,0.45 0.81,0.94 1.33,1.48 0.5,0.55 1.03,1.11 1.55,1.69 0.52,0.58 1.05,1.14 1.56,1.69 0.5,0.54 0.98,1.04 1.38,1.47 2.45,2.63 4.83,5.18 7.18,7.65 2.32,2.47 4.41,4.95 6.24,7.42 1.82,2.45 3.28,4.95 4.38,7.46 1.1,2.49 1.65,5.1 1.61,7.79 -0.04,3 -0.64,5.67 -1.78,8.05 -1.17,2.37 -2.84,4.55 -5.06,6.57 -2.06,1.72 -4.38,3.09 -6.98,4.09 -2.61,0.99 -5.46,1.48 -8.57,1.48zm-0.59 -36.84c-1.37,1.53 -2.66,2.99 -3.87,4.33 -1.22,1.37 -2.24,2.73 -3.13,4.1 -0.86,1.35 -1.51,2.75 -1.98,4.21 -0.45,1.45 -0.64,3.01 -0.54,4.73 0.1,1.26 0.49,2.34 1.11,3.24 0.65,0.9 1.46,1.64 2.42,2.24 0.96,0.6 2.01,1.03 3.16,1.31 1.17,0.27 2.29,0.4 3.41,0.4 1.32,0 2.55,-0.18 3.76,-0.55 1.18,-0.38 2.23,-0.91 3.13,-1.59 0.9,-0.69 1.63,-1.51 2.18,-2.5 0.54,-1 0.82,-2.09 0.82,-3.27 0,-1.48 -0.3,-2.91 -0.88,-4.29 -0.56,-1.4 -1.35,-2.79 -2.32,-4.14 -0.96,-1.37 -2.08,-2.73 -3.33,-4.1 -1.28,-1.36 -2.59,-2.74 -3.94,-4.13zm-70.3 36.84l-12.72 0 0 -73.69 12.72 0 0 73.69zm-67.24 14.71c2.73,0 5.15,-0.09 7.29,-0.28 2.13,-0.19 4.02,-0.45 5.68,-0.81 1.65,-0.36 3.09,-0.82 4.34,-1.38 1.23,-0.56 2.32,-1.23 3.24,-2.02 1.42,-1.14 2.51,-2.49 3.24,-4.02 0.73,-1.54 1.17,-3.6 1.31,-6.19l-7.87 0c-1.7,0 -3.45,-0.13 -5.23,-0.41 -1.76,-0.27 -3.46,-0.73 -5.1,-1.41 -1.64,-0.65 -3.18,-1.51 -4.62,-2.59 -1.43,-1.04 -2.72,-2.36 -3.78,-3.89 -1.08,-1.55 -1.94,-3.4 -2.55,-5.48 -0.64,-2.11 -0.96,-4.54 -0.96,-7.27 0,-2.34 0.21,-4.45 0.62,-6.27 0.42,-1.82 0.92,-3.43 1.56,-4.83 0.64,-1.4 1.33,-2.61 2.11,-3.66 0.8,-1.03 1.54,-1.95 2.26,-2.7 2.04,-2.06 4.36,-3.64 6.94,-4.74 2.59,-1.11 5.38,-1.65 8.38,-1.65 3.73,0 6.89,0.64 9.53,1.91 2.64,1.27 4.81,3.04 6.48,5.28 1.69,2.26 2.92,4.91 3.72,8.01 0.78,3.09 1.18,6.42 1.18,10.04l0 18.13c0,5.07 -0.77,9.35 -2.31,12.8 -1.54,3.47 -3.86,6.43 -6.98,8.92 -1.58,1.24 -3.28,2.28 -5.12,3.2 -1.83,0.9 -3.9,1.65 -6.18,2.27 -2.29,0.62 -4.84,1.06 -7.65,1.35 -2.81,0.31 -5.97,0.44 -9.53,0.44l0 -12.72zm16.86 -46.9c-2.89,0 -5.19,0.9 -6.9,2.69 -1.7,1.82 -2.55,4.63 -2.55,8.44 0,1.49 0.29,2.77 0.9,3.83 0.58,1.05 1.35,1.91 2.28,2.59 0.95,0.65 2,1.14 3.15,1.45 1.17,0.31 2.32,0.46 3.49,0.46l7.87 0 0 -6.95c0,-1.95 -0.17,-3.6 -0.46,-4.99 -0.31,-1.4 -0.72,-2.54 -1.2,-3.45 -0.49,-0.92 -1.05,-1.65 -1.68,-2.21 -0.64,-0.54 -1.24,-0.95 -1.85,-1.23 -0.59,-0.25 -1.18,-0.45 -1.72,-0.52 -0.55,-0.09 -0.97,-0.13 -1.33,-0.13zm-34.56 29.08c-0.2,4.69 -1.06,8.93 -2.6,12.69 -1.54,3.77 -3.65,6.97 -6.33,9.61 -2.7,2.65 -5.95,4.69 -9.76,6.11 -3.82,1.42 -8.14,2.14 -12.93,2.14l-6.33 0 0 -12.72 6.33 0c3.26,0 6.09,-0.33 8.48,-1.01 2.38,-0.69 4.33,-1.78 5.87,-3.28 1.54,-1.5 2.68,-3.45 3.43,-5.84 0.74,-2.4 1.11,-5.32 1.11,-8.76l0 -31.12 12.72 0 0 32.2zm-41.5 -39.81c0.08,0.24 0.23,0.81 0.45,1.69 0.2,0.87 0.47,1.96 0.73,3.23 0.28,1.28 0.56,2.7 0.85,4.28 0.31,1.58 0.56,3.15 0.82,4.72 0.25,1.6 0.46,3.14 0.63,4.64 0.14,1.5 0.22,2.81 0.22,3.93 0,3.5 -0.58,6.55 -1.74,9.12 -1.15,2.56 -2.68,4.68 -4.55,6.34 -1.87,1.68 -3.97,2.94 -6.29,3.74 -2.34,0.82 -4.69,1.23 -7.03,1.23l-20.28 0 -1.75 0 -2.33 0c-1.29,0 -2.63,-0.12 -3.96,-0.36 -1.35,-0.24 -2.6,-0.58 -3.77,-1.02l0 0.41c0,9.51 -2.51,16.62 -7.53,21.36 -5.02,4.74 -12.56,7.1 -22.55,7.1l-10.39 0c-2.71,0 -5.33,-0.31 -7.87,-0.97 -2.51,-0.63 -4.88,-1.55 -7.12,-2.76 -2.22,-1.19 -4.28,-2.65 -6.18,-4.38 -1.9,-1.74 -3.54,-3.7 -4.95,-5.88 -1.63,-2.66 -2.88,-5.62 -3.77,-8.87 -0.9,-3.26 -1.33,-6.65 -1.33,-10.19 0,-2.26 0.14,-4.45 0.41,-6.55 0.27,-2.11 0.69,-4.29 1.29,-6.5 0.6,-2.22 1.38,-4.54 2.37,-6.96 0.95,-2.41 2.15,-5.07 3.54,-7.96l11.51 5.47c-1.24,2.47 -2.26,4.7 -3.08,6.69 -0.82,1.96 -1.49,3.84 -1.99,5.6 -0.52,1.74 -0.88,3.43 -1.1,5.06 -0.23,1.61 -0.35,3.29 -0.35,5.07 0,2.33 0.31,4.54 0.88,6.68 0.58,2.11 1.37,4.05 2.4,5.75 1.64,2.42 3.79,4.34 6.47,5.79 2.68,1.43 5.63,2.16 8.86,2.16l10.39 0c3.59,0 6.53,-0.37 8.8,-1.11 2.27,-0.76 4.02,-1.82 5.28,-3.19 1.28,-1.38 2.14,-3.05 2.59,-4.99 0.47,-1.95 0.69,-4.09 0.69,-6.45l0 -34.38 12.72 0 0 15.94c0.08,2.25 0.81,3.92 2.23,5.02 1.41,1.1 3.24,1.67 5.5,1.67l2.33 0 1.75 0 20.64 0c0.4,0 0.99,-0.05 1.76,-0.19 0.77,-0.1 1.54,-0.42 2.29,-0.94 0.77,-0.5 1.43,-1.29 2.02,-2.32 0.58,-1.05 0.88,-2.47 0.88,-4.27 0,-0.76 -0.08,-1.68 -0.19,-2.74 -0.12,-1.06 -0.28,-2.23 -0.49,-3.45 -0.21,-1.22 -0.44,-2.47 -0.69,-3.76 -0.25,-1.28 -0.51,-2.48 -0.73,-3.63 -0.25,-1.14 -0.49,-2.18 -0.72,-3.11 -0.24,-0.93 -0.43,-1.66 -0.56,-2.18l11.99 -3.63zm-6.2 70.77l-8.58 -8.67 8.47 -8.79 8.79 8.79 -8.68 8.67zm-21.41 0.06l-8.58 -8.7 8.43 -8.79 8.79 8.79 -8.64 8.7zm-61.95 -67.05l9.2 -9.29 9.41 9.4 -9.31 9.29 -9.29 -9.41zm-48.09 -260.83l305.69 0 35.93 -98.69 140.97 0 35.92 98.69 111.56 0 -145.78 -400.53 357.98 0 0 113.94 -189.18 0 0 286.59 491 0 0 8.07 -1144.1 0 0 -8.07zm1228.77 167.36l-14.89 0 0 -33.7c0,-3.39 -0.36,-6.24 -1.1,-8.55 -0.72,-2.28 -1.78,-4.13 -3.18,-5.54 -1.41,-1.38 -3.11,-2.38 -5.1,-2.96 -2.01,-0.6 -4.32,-0.9 -6.91,-0.9 -2.38,0 -4.62,0.41 -6.71,1.27 -2.08,0.85 -3.88,2.08 -5.4,3.65 -1.54,1.58 -2.71,3.47 -3.59,5.67 -0.87,2.22 -1.31,4.65 -1.31,7.32l0 33.72 -14.77 0 0 -85.62 14.71 0 -0.06 28.76c2.43,-2.14 5.37,-3.95 8.81,-5.42 3.45,-1.45 7.15,-2.18 11.19,-2.18 4.84,0 9.06,0.67 12.62,2.03 3.57,1.32 6.52,3.29 8.84,5.88 2.34,2.6 4.06,5.79 5.17,9.58 1.11,3.79 1.68,8.14 1.68,13.04l0 33.93zm-201.8 -31.26c0,3.16 0.54,5.98 1.61,8.5 1.06,2.51 2.51,4.65 4.34,6.39 1.82,1.76 3.91,3.1 6.28,4.04 2.38,0.93 4.86,1.4 7.45,1.4 3.86,0 7.33,-0.93 10.39,-2.82 3.09,-1.9 5.46,-4.52 7.11,-7.88l15.12 0c-0.94,3.39 -2.38,6.52 -4.37,9.39 -1.97,2.86 -4.38,5.33 -7.2,7.45 -2.81,2.09 -6,3.73 -9.56,4.92 -3.56,1.18 -7.43,1.76 -11.56,1.76 -4.97,0 -9.57,-0.87 -13.79,-2.61 -4.21,-1.74 -7.84,-4.1 -10.92,-7.11 -3.05,-2.99 -5.43,-6.5 -7.15,-10.49 -1.72,-4.02 -2.59,-8.3 -2.59,-12.88 0,-4.59 0.85,-8.88 2.55,-12.9 1.71,-4.05 4.09,-7.57 7.13,-10.58 3.08,-3 6.7,-5.4 10.92,-7.14 4.22,-1.73 8.83,-2.61 13.85,-2.61 4.13,0 7.97,0.59 11.52,1.77 3.54,1.18 6.74,2.82 9.53,4.92 2.82,2.09 5.23,4.57 7.23,7.47 1.96,2.87 3.43,6.02 4.41,9.43l-15.12 0c-1.61,-3.34 -3.98,-5.93 -7.07,-7.82 -3.1,-1.9 -6.57,-2.82 -10.43,-2.82 -2.63,0 -5.12,0.45 -7.51,1.38 -2.37,0.93 -4.46,2.28 -6.24,4.05 -1.81,1.74 -3.26,3.87 -4.32,6.38 -1.08,2.51 -1.61,5.32 -1.61,8.43zm-166.92 0.04c0,-4.59 0.86,-8.88 2.56,-12.9 1.69,-4.05 4.07,-7.55 7.13,-10.56 3.08,-2.98 6.7,-5.37 10.92,-7.11 4.21,-1.72 8.81,-2.6 13.79,-2.6 5.02,0 9.65,0.88 13.88,2.6 4.25,1.74 7.88,4.13 10.96,7.11 3.05,3.01 5.46,6.51 7.17,10.56 1.72,4.02 2.58,8.32 2.58,12.9 0,1.01 -0.04,1.82 -0.13,2.42 -0.09,0.63 -0.17,1.2 -0.26,1.77l-54.06 0c0.47,2.55 1.37,4.87 2.63,6.92 1.29,2.08 2.82,3.82 4.62,5.28 1.81,1.42 3.79,2.55 6,3.33 2.18,0.79 4.44,1.18 6.74,1.18 3.65,0 6.87,-0.81 9.66,-2.42 2.81,-1.61 4.92,-3.75 6.37,-6.39l15.99 0c-1.01,2.77 -2.49,5.39 -4.43,7.93 -1.95,2.53 -4.29,4.77 -7.01,6.72 -2.74,1.95 -5.85,3.51 -9.31,4.65 -3.46,1.17 -7.27,1.74 -11.39,1.74 -4.97,0 -9.57,-0.87 -13.79,-2.62 -4.22,-1.74 -7.84,-4.11 -10.92,-7.11 -3.05,-3 -5.43,-6.5 -7.13,-10.52 -1.7,-4.01 -2.56,-8.3 -2.56,-12.88zm34.52 -21.32c-2.51,0 -4.83,0.37 -6.97,1.11 -2.11,0.74 -4.02,1.78 -5.7,3.14 -1.68,1.32 -3.11,2.92 -4.28,4.77 -1.18,1.85 -2.05,3.86 -2.6,6.04l38.45 0c-0.56,-2.18 -1.41,-4.19 -2.55,-6.04 -1.14,-1.85 -2.51,-3.45 -4.14,-4.77 -1.61,-1.36 -3.46,-2.4 -5.48,-3.14 -2.06,-0.74 -4.31,-1.11 -6.73,-1.11zm-154.66 -17.02l-24.55 0 0 -13.06 64.35 0 0 13.06 -24.61 0 0 69.56 -15.18 0 0 -69.56zm-123.72 62.85c0,-1.14 0.22,-2.2 0.63,-3.19 0.4,-1 0.97,-1.9 1.77,-2.65 0.77,-0.77 1.68,-1.37 2.72,-1.83 1.05,-0.44 2.24,-0.67 3.52,-0.67 1.31,0 2.47,0.23 3.52,0.67 1.06,0.46 1.97,1.06 2.74,1.83 0.77,0.76 1.35,1.65 1.76,2.65 0.42,0.99 0.6,2.05 0.6,3.19 0,1.14 -0.18,2.21 -0.6,3.19 -0.41,1 -0.99,1.87 -1.76,2.61 -0.77,0.74 -1.68,1.35 -2.74,1.77 -1.05,0.43 -2.22,0.64 -3.52,0.64 -1.28,0 -2.47,-0.23 -3.52,-0.67 -1.04,-0.45 -1.95,-1.05 -2.72,-1.81 -0.8,-0.74 -1.37,-1.61 -1.77,-2.6 -0.41,-1 -0.63,-2.04 -0.63,-3.14zm-86.21 6.72l-14.89 0 0 -33.39c0,-3.32 -0.35,-6.14 -1.1,-8.46 -0.72,-2.31 -1.75,-4.19 -3.09,-5.66 -1.32,-1.45 -2.96,-2.51 -4.89,-3.15 -1.92,-0.64 -4.09,-0.97 -6.47,-0.97 -2.59,0 -4.97,0.47 -7.14,1.43 -2.18,0.95 -4.04,2.28 -5.61,4 -1.58,1.74 -2.81,3.78 -3.68,6.16 -0.87,2.36 -1.31,4.97 -1.31,7.82l0 32.22 -14.76 0 0 -62.57 12.03 0 1.09 6.3c1.29,-1.11 2.74,-2.2 4.38,-3.18 1.61,-0.99 3.33,-1.87 5.19,-2.61 1.85,-0.74 3.77,-1.35 5.8,-1.76 2.01,-0.43 4.06,-0.65 6.14,-0.65 4.86,0 9.06,0.69 12.63,2.04 3.56,1.37 6.51,3.34 8.83,5.97 2.34,2.61 4.06,5.83 5.17,9.67 1.13,3.82 1.68,8.19 1.68,13.11l0 33.67zm-170 -62.53l14.89 0 0 62.53 -14.89 0 0 -62.53zm-1.64 -17.71c0,-1.13 0.2,-2.18 0.67,-3.18 0.43,-1 1.05,-1.87 1.85,-2.61 0.78,-0.74 1.76,-1.33 2.88,-1.78 1.14,-0.43 2.41,-0.67 3.77,-0.67 1.37,0 2.66,0.23 3.79,0.67 1.17,0.45 2.14,1.04 2.96,1.78 0.79,0.74 1.45,1.61 1.88,2.61 0.45,1 0.67,2.05 0.67,3.18 0,1.14 -0.22,2.19 -0.67,3.19 -0.44,1 -1.09,1.87 -1.88,2.61 -0.82,0.74 -1.79,1.33 -2.96,1.74 -1.13,0.43 -2.42,0.64 -3.79,0.64 -1.36,0 -2.61,-0.2 -3.73,-0.64 -1.11,-0.41 -2.08,-1 -2.88,-1.74 -0.81,-0.74 -1.45,-1.61 -1.88,-2.61 -0.46,-1 -0.67,-2.05 -0.67,-3.19zm-82.4 30.65l-7.36 0.06c-2.88,0 -5.47,0.41 -7.78,1.24 -2.31,0.83 -4.27,2.08 -5.93,3.72 -1.64,1.64 -2.88,3.69 -3.75,6.14 -0.87,2.45 -1.31,5.27 -1.31,8.48l0 29.94 -14.78 0 0 -62.53 11.98 0 1.32 7.5c2.11,-2.16 4.77,-3.94 8.01,-5.36 3.21,-1.41 7.03,-2.14 11.46,-2.14l8.14 0 0 12.94zm-124.74 -12.88l-26.63 62.47 -13.37 0 -26.49 -62.47 15.79 0 17.32 42.87 0.12 0 17.32 -42.87 15.93 0zm-163.72 46.73l-38.11 0 -6.5 15.73 -15.96 0 34.39 -82.75 14.34 0 34.38 82.75 -16.03 0 -6.51 -15.73zm-32.75 -13.03l27.36 0 -13.13 -31.92 -0.5 -2.11 -0.06 0 -0.47 2.11 -13.18 31.92z"/>
 </g>
</svg>
